<svg width="136" height="37" viewBox="0 0 136 37" fill="none" xmlns="http://www.w3.org/2000/svg">
<path d="M52.4402 14.2218C50.7058 14.2218 49.8477 15.5867 49.454 16.4671C49.2341 16.9588 49.1725 17.3474 48.9941 17.3474C48.7428 17.3474 48.9228 17.0096 48.7171 16.2604C48.4465 15.2747 47.6307 14.2218 45.8974 14.2218C44.0751 14.2218 43.295 15.7614 42.925 16.6074C42.672 17.1858 42.6717 17.3474 42.4771 17.3474C42.1952 17.3474 42.4288 16.888 42.5555 16.3479C42.8054 15.2845 42.6155 14.4718 42.6155 14.4718H39.7268V25.3339H43.6697C43.6697 25.3339 43.6697 20.7944 43.6697 19.9296C43.6697 18.8636 44.1156 17.511 44.8799 17.511C45.7631 17.511 45.9398 18.1892 45.9398 19.4451C45.9398 20.5837 45.9398 25.3363 45.9398 25.3363H49.8986C49.8986 25.3363 49.8986 20.7692 49.8986 19.9296C49.8986 18.9808 50.2858 17.511 51.1146 17.511C52.01 17.511 52.1686 18.4638 52.1686 19.4451C52.1686 20.4264 52.1686 25.3339 52.1686 25.3339H56.0561C56.0561 25.3339 56.0561 21.0301 56.0561 18.9464C56.0561 16.1117 55.0569 14.2218 52.4402 14.2218Z" fill="#6B7280"/>
<path d="M119.365 14.2218C117.631 14.2218 116.773 15.5867 116.379 16.4671C116.159 16.9588 116.098 17.3474 115.919 17.3474C115.668 17.3474 115.836 16.9183 115.642 16.2604C115.353 15.2799 114.634 14.2218 112.822 14.2218C111 14.2218 110.22 15.7614 109.85 16.6074C109.597 17.1858 109.597 17.3474 109.402 17.3474C109.12 17.3474 109.354 16.888 109.481 16.3479C109.73 15.2845 109.541 14.4718 109.541 14.4718H106.652V25.3339H110.595C110.595 25.3339 110.595 20.7944 110.595 19.9296C110.595 18.8636 111.041 17.511 111.805 17.511C112.688 17.511 112.865 18.1892 112.865 19.4451C112.865 20.5837 112.865 25.3363 112.865 25.3363H116.823C116.823 25.3363 116.823 20.7692 116.823 19.9296C116.823 18.9808 117.211 17.511 118.04 17.511C118.935 17.511 119.094 18.4638 119.094 19.4451C119.094 20.4264 119.094 25.3339 119.094 25.3339H122.981C122.981 25.3339 122.981 21.0301 122.981 18.9464C122.981 16.1117 121.982 14.2218 119.365 14.2218Z" fill="#6B7280"/>
<path d="M61.8287 22.7952C60.8858 23.0129 60.3971 22.7225 60.3971 22.0976C60.3971 21.2415 61.2825 20.8986 62.5465 20.8986C63.1036 20.8986 63.6275 20.9468 63.6275 20.9468C63.6275 21.3133 62.8321 22.5637 61.8287 22.7952ZM62.7886 14.2241C59.7683 14.2241 57.6011 15.3346 57.6011 15.3346V18.5986C57.6011 18.5986 59.9944 17.2225 61.9359 17.2225C63.4856 17.2225 63.676 18.0583 63.6054 18.752C63.6054 18.752 63.1586 18.6337 61.7946 18.6337C58.581 18.6337 56.9587 20.0943 56.9587 22.4363C56.9587 24.6578 58.782 25.5864 60.318 25.5864C62.5595 25.5864 63.5448 24.0802 63.8476 23.3655C64.0578 22.8698 64.096 22.5356 64.2848 22.5356C64.4998 22.5356 64.4275 22.7753 64.4171 23.2687C64.3988 24.1328 64.4395 24.786 64.5765 25.3363H67.5483V19.9906C67.5483 16.6531 66.3675 14.2241 62.7886 14.2241Z" fill="#6B7280"/>
<path d="M74.0432 25.3363H77.9862V11.1836H74.0432V25.3363Z" fill="#6B7280"/>
<path d="M82.3262 19.9052C82.3262 18.9285 83.2335 18.0399 84.8993 18.0399C86.7143 18.0399 88.1741 18.9138 88.5016 19.1123V15.3346C88.5016 15.3346 87.3483 14.2241 84.5136 14.2241C81.5254 14.2241 79.037 15.9727 79.037 19.7361C79.037 23.4996 81.2953 25.5864 84.5056 25.5864C87.0131 25.5864 88.5079 24.2086 88.5079 24.2086V20.6204C88.035 20.8851 86.7173 21.7995 84.9174 21.7995C83.0115 21.7995 82.3262 20.9228 82.3262 19.9052Z" fill="#6B7280"/>
<path d="M96.4888 14.2241C94.2063 14.2241 93.3381 16.3872 93.1628 16.7628C92.9874 17.1383 92.9008 17.3544 92.7572 17.3498C92.5081 17.3416 92.6818 16.8887 92.7789 16.5954C92.9625 16.0414 93.3515 14.5876 93.3515 12.8009C93.3515 11.5891 93.1876 11.1835 93.1876 11.1835H89.7838V25.3363H93.7268C93.7268 25.3363 93.7268 20.8122 93.7268 19.9321C93.7268 19.0516 94.0781 17.5133 95.0714 17.5133C95.8942 17.5133 96.1517 18.123 96.1517 19.3506C96.1517 20.578 96.1517 25.3363 96.1517 25.3363H100.095C100.095 25.3363 100.095 22.0258 100.095 19.5868C100.095 16.7986 99.6326 14.2241 96.4888 14.2241Z" fill="#6B7280"/>
<path d="M101.376 14.4867V25.3363H105.319V14.4867C105.319 14.4867 104.657 14.8743 103.352 14.8743C102.047 14.8743 101.376 14.4867 101.376 14.4867Z" fill="#6B7280"/>
<path d="M103.336 11.0736C102.003 11.0736 100.922 11.7789 100.922 12.649C100.922 13.5189 102.003 14.2242 103.336 14.2242C104.669 14.2242 105.75 13.5189 105.75 12.649C105.75 11.7789 104.669 11.0736 103.336 11.0736Z" fill="#6B7280"/>
<path d="M68.8243 14.4867V25.3363H72.7672V14.4867C72.7672 14.4867 72.1045 14.8743 70.7998 14.8743C69.4952 14.8743 68.8243 14.4867 68.8243 14.4867Z" fill="#6B7280"/>
<path d="M70.784 11.0736C69.4512 11.0736 68.3705 11.7789 68.3705 12.649C68.3705 13.5189 69.4512 14.2242 70.784 14.2242C72.1171 14.2242 73.1977 13.5189 73.1977 12.649C73.1977 11.7789 72.1171 11.0736 70.784 11.0736Z" fill="#6B7280"/>
<path d="M129.733 23.0021C128.828 23.0021 128.163 21.8553 128.163 20.2575C128.163 18.7057 128.846 17.5134 129.702 17.5134C130.799 17.5134 131.267 18.5196 131.267 20.2575C131.267 22.0653 130.835 23.0021 129.733 23.0021ZM130.815 14.2218C128.788 14.2218 127.859 15.7417 127.455 16.6074C127.189 17.1796 127.202 17.3474 127.007 17.3474C126.726 17.3474 126.959 16.888 127.086 16.3479C127.336 15.2845 127.146 14.4718 127.146 14.4718H124.257V28.3338H128.2C128.2 28.3338 128.2 26.0655 128.2 23.9389C128.667 24.7304 129.531 25.5761 130.863 25.5761C133.715 25.5761 135.15 23.1638 135.15 19.9044C135.15 16.2102 133.432 14.2218 130.815 14.2218Z" fill="#6B7280"/>
<path d="M25.797 17.5027C26.0622 17.4711 26.3162 17.4696 26.5496 17.5027C26.6847 17.1929 26.708 16.6587 26.5864 16.0771C26.4058 15.2125 26.1614 14.6893 25.6562 14.7708C25.1511 14.8522 25.1324 15.4786 25.313 16.3431C25.4146 16.8294 25.5955 17.2451 25.797 17.5027Z" fill="#6B7280"/>
<path d="M21.4601 18.1868C21.8215 18.3455 22.0437 18.4506 22.1306 18.3587C22.1865 18.3014 22.1699 18.1921 22.0836 18.0511C21.9052 17.7599 21.5381 17.4646 21.1488 17.2987C20.3526 16.956 19.4031 17.07 18.6705 17.5963C18.4288 17.7735 18.1995 18.0189 18.2323 18.168C18.243 18.2162 18.2792 18.2525 18.364 18.2644C18.5634 18.2872 19.2601 17.9349 20.0627 17.8858C20.6292 17.8511 21.0986 18.0283 21.4601 18.1868Z" fill="#6B7280"/>
<path d="M20.733 18.6017C20.2622 18.676 20.0025 18.8312 19.8358 18.9755C19.6936 19.0998 19.6057 19.2373 19.6064 19.334C19.6067 19.3799 19.6267 19.4065 19.6424 19.4198C19.6639 19.4387 19.6893 19.4492 19.7198 19.4492C19.8262 19.4492 20.0643 19.3535 20.0643 19.3535C20.7195 19.1191 21.1516 19.1475 21.5799 19.1963C21.8166 19.2229 21.9284 19.2376 21.9803 19.1564C21.9958 19.1331 22.0143 19.0827 21.9669 19.0059C21.8566 18.8271 21.3813 18.5247 20.733 18.6017" fill="#6B7280"/>
<path d="M24.3326 20.1247C24.6522 20.2817 25.0041 20.22 25.1187 19.9869C25.2332 19.7539 25.067 19.4376 24.7473 19.2804C24.4277 19.1235 24.0758 19.1851 23.9611 19.4182C23.8467 19.6513 24.0129 19.9675 24.3326 20.1247Z" fill="#6B7280"/>
<path d="M26.3875 18.329C26.1279 18.3246 25.9126 18.6098 25.9065 18.9658C25.9004 19.322 26.1061 19.6142 26.3657 19.6186C26.6254 19.6231 26.8409 19.3379 26.8468 18.9818C26.8529 18.6256 26.6472 18.3333 26.3875 18.329Z" fill="#6B7280"/>
<path d="M8.94529 24.7501C8.88069 24.6692 8.77457 24.6938 8.6718 24.7178C8.60002 24.7346 8.5187 24.7534 8.42954 24.7519C8.23855 24.7481 8.07682 24.6666 7.98598 24.5271C7.86769 24.3454 7.87453 24.0745 8.00516 23.7646C8.02273 23.7226 8.04349 23.6762 8.06609 23.6256C8.27428 23.1583 8.6229 22.3762 8.23154 21.631C7.93697 21.0702 7.45658 20.7208 6.87898 20.6475C6.32448 20.5772 5.7536 20.7828 5.38946 21.1845C4.81498 21.8183 4.7252 22.6808 4.8363 22.9855C4.87704 23.0971 4.94069 23.1279 4.98699 23.1343C5.0847 23.1473 5.22923 23.0763 5.31978 22.8327C5.32625 22.8152 5.33487 22.788 5.34567 22.7535C5.38607 22.6248 5.46118 22.3849 5.58422 22.1927C5.73258 21.961 5.96365 21.8014 6.23487 21.7433C6.51119 21.6841 6.79359 21.7369 7.02999 21.8917C7.43248 22.1549 7.58744 22.648 7.41562 23.1186C7.32682 23.3619 7.18252 23.8271 7.21438 24.2096C7.27869 24.9833 7.75461 25.2941 8.18224 25.3271C8.598 25.3427 8.88856 25.1094 8.96207 24.9388C9.00546 24.8379 8.96884 24.7765 8.9453 24.7501" fill="#6B7280"/>
<path d="M12.8977 10.5381C14.2537 8.97122 15.923 7.60898 17.4183 6.84406C17.4701 6.8175 17.5249 6.87374 17.4969 6.92444C17.3781 7.13947 17.1496 7.59993 17.0771 7.94917C17.0658 8.00359 17.125 8.04452 17.1709 8.01323C18.1012 7.37912 19.7196 6.69962 21.1391 6.61228C21.2 6.6085 21.2295 6.68672 21.181 6.72395C20.9651 6.88959 20.729 7.11871 20.5565 7.3505C20.5271 7.38993 20.5548 7.44674 20.604 7.44704C21.6007 7.45414 23.0058 7.80295 23.9217 8.31664C23.9837 8.35132 23.9395 8.47132 23.8702 8.45545C22.4845 8.13795 20.2163 7.89697 17.8602 8.47163C15.7568 8.98474 14.1513 9.77679 12.9802 10.6286C12.9209 10.6718 12.8499 10.5936 12.8977 10.5381L12.8977 10.5381ZM19.6512 25.7198C19.6514 25.7201 19.6515 25.7206 19.6516 25.7206C19.6519 25.721 19.652 25.7219 19.6525 25.7223C19.652 25.7215 19.6516 25.7206 19.6512 25.7198ZM25.2432 26.3799C25.2833 26.363 25.3111 26.3171 25.3063 26.2716C25.3007 26.2155 25.2507 26.1748 25.1947 26.1805C25.1947 26.1805 22.3008 26.6088 19.5671 25.6082C19.8649 24.6403 20.6567 24.9897 21.8534 25.0864C24.0105 25.215 25.9437 24.8999 27.3725 24.4897C28.6107 24.1345 30.2367 23.4339 31.4998 22.437C31.9258 23.3729 32.0762 24.4026 32.0762 24.4026C32.0762 24.4026 32.406 24.3438 32.6815 24.5133C32.942 24.6735 33.133 25.0066 33.0025 25.868C32.7369 27.4771 32.0529 28.783 30.9035 29.9845C30.2037 30.7377 29.3542 31.3926 28.3823 31.8688C27.8661 32.1399 27.3165 32.3745 26.7359 32.564C22.4024 33.9793 17.9667 32.4234 16.5368 29.082C16.4228 28.8308 16.3263 28.5678 16.2502 28.2927C15.6408 26.0908 16.1581 23.4491 17.7751 21.7862C17.7753 21.7861 17.775 21.7854 17.7751 21.7854C17.8748 21.6795 17.9765 21.5548 17.9765 21.3979C17.9765 21.2667 17.8932 21.1282 17.8208 21.03C17.255 20.2095 15.2954 18.8112 15.6887 16.1052C15.9712 14.1612 17.6713 12.7921 19.2564 12.8732C19.3904 12.8802 19.5246 12.8884 19.6582 12.8962C20.3451 12.937 20.9443 13.0251 21.5098 13.0487C22.4562 13.0896 23.3073 12.952 24.3153 12.1122C24.6553 11.8288 24.9279 11.5832 25.3892 11.5051C25.4377 11.4968 25.5583 11.4535 25.7994 11.4649C26.0454 11.4779 26.2797 11.5456 26.4902 11.6857C27.2984 12.2234 27.4129 13.5258 27.4549 14.4786C27.4787 15.0224 27.5446 16.3382 27.567 16.7159C27.6184 17.5796 27.8455 17.7013 28.3047 17.8526C28.5631 17.9377 28.8029 18.001 29.1562 18.1003C30.2259 18.4006 30.8602 18.7053 31.2598 19.0967C31.4983 19.3412 31.6092 19.6012 31.6435 19.849C31.7695 20.7691 30.929 21.9059 28.7039 22.9387C26.2716 24.0676 23.3208 24.3534 21.282 24.1264C21.1257 24.1091 20.5696 24.0461 20.5677 24.0457C18.9369 23.8261 18.0066 25.9337 18.9853 27.3776C19.6162 28.3082 21.3344 28.9139 23.0534 28.9142C26.995 28.9146 30.0245 27.2314 31.1514 25.7778C31.1852 25.7344 31.1885 25.7296 31.2416 25.6493C31.2971 25.5658 31.2514 25.5196 31.1823 25.567C30.2615 26.1969 26.1719 28.6981 21.7975 27.9456C21.7975 27.9456 21.266 27.8583 20.7808 27.6695C20.3952 27.5196 19.5882 27.1482 19.4902 26.3203C23.0203 27.412 25.2432 26.3799 25.2432 26.3799V26.3799ZM5.85308 17.9903C4.62535 18.2291 3.54325 18.9249 2.88159 19.886C2.48606 19.5562 1.74926 18.9176 1.61916 18.6688C0.562726 16.6629 2.77205 12.7629 4.31543 10.5604C8.12966 5.11731 14.1036 0.997338 16.869 1.7449C17.3187 1.87214 18.8075 3.59845 18.8075 3.59845C18.8075 3.59845 16.0433 5.13228 13.4797 7.27027C10.0255 9.92996 7.41621 13.7956 5.85308 17.9903ZM7.91614 27.195C7.7303 27.2268 7.54077 27.2394 7.3496 27.2348C5.50233 27.1852 3.50693 25.5221 3.30864 23.5499C3.08949 21.37 4.20335 19.6923 6.17551 19.2944C6.41128 19.247 6.69622 19.2195 7.00348 19.2355C8.10846 19.296 9.73683 20.1445 10.1088 22.5517C10.4383 24.6837 9.91501 26.8541 7.91614 27.195V27.195ZM32.94 23.3349C32.9242 23.279 32.8211 22.9022 32.6795 22.4481C32.5379 21.9938 32.3912 21.6743 32.3912 21.6743C32.9593 20.8237 32.9694 20.063 32.8939 19.6321C32.8132 19.0981 32.5909 18.643 32.1428 18.1726C31.6946 17.7022 30.7782 17.2204 29.4901 16.8587C29.3428 16.8173 28.857 16.684 28.8143 16.6711C28.8109 16.6432 28.7787 15.0778 28.7495 14.4058C28.7281 13.92 28.6864 13.1616 28.4511 12.4147C28.1707 11.4036 27.682 10.5188 27.0722 9.9528C28.7553 8.20824 29.8059 6.28632 29.8034 4.63757C29.7985 1.46684 25.9046 0.507517 21.1058 2.49454C21.1008 2.4966 20.0964 2.92252 20.0891 2.92608C20.0845 2.92178 18.251 1.12265 18.2234 1.09863C12.7522 -3.67354 -4.35399 15.3404 1.11519 19.9583L2.31042 20.9709C2.00039 21.7741 1.87856 22.6943 1.97808 23.6838C2.10581 24.9547 2.76139 26.173 3.82398 27.1142C4.83267 28.008 6.15888 28.5736 7.44587 28.5726C9.57416 33.4772 14.4371 36.486 20.1388 36.6553C26.255 36.837 31.3891 33.967 33.5405 28.8118C33.6812 28.4499 34.2784 26.8197 34.2784 25.3807C34.2784 23.9343 33.4607 23.3349 32.94 23.3349Z" fill="#6B7280"/>
</svg>
