<svg width="125" height="38" viewBox="0 0 125 38" fill="none" xmlns="http://www.w3.org/2000/svg">
<path d="M50.9488 17.6535C54.8435 18.6003 56.4313 20.0704 56.4313 22.7284C56.4313 25.8733 54.0285 27.9056 50.3096 27.9056C47.681 27.9056 45.2441 26.9718 43.2635 25.2035C43.2229 25.1672 43.198 25.1165 43.1942 25.0621C43.1905 25.0077 43.2082 24.954 43.2435 24.9125L44.9936 22.8307C45.0115 22.8095 45.0334 22.792 45.0581 22.7792C45.0828 22.7665 45.1097 22.7588 45.1374 22.7566C45.1651 22.7544 45.193 22.7578 45.2194 22.7665C45.2458 22.7752 45.2702 22.789 45.2912 22.8072C46.9936 24.2809 48.5155 24.9089 50.3808 24.9089C52.0608 24.9089 53.1046 24.1815 53.1046 23.0124C53.1046 21.9569 52.5883 21.3671 49.5293 20.6626C45.9362 19.7934 43.8563 18.6691 43.8563 15.4906C43.8563 12.5269 46.2673 10.4569 49.718 10.4569C52.0644 10.4569 54.0737 11.152 55.8573 12.5827C55.9432 12.6521 55.9608 12.7768 55.8967 12.8673L54.3354 15.0667C54.3191 15.0893 54.2985 15.1084 54.2747 15.123C54.251 15.1376 54.2246 15.1474 54.197 15.1518C54.1695 15.1561 54.1413 15.155 54.1142 15.1485C54.0871 15.142 54.0616 15.1301 54.039 15.1137C52.5407 13.9964 51.1117 13.4542 49.6698 13.4542C48.1832 13.4542 47.1835 14.1687 47.1835 15.2301C47.1835 16.3533 47.7539 16.8885 50.9494 17.6517L50.9488 17.6535ZM64.8445 14.5015C63.2333 14.5015 61.9113 15.1366 60.8205 16.4362V14.972C60.8205 14.9165 60.7984 14.8632 60.7592 14.824C60.7199 14.7847 60.6667 14.7626 60.6111 14.7626H57.7497C57.6941 14.7626 57.6409 14.7847 57.6016 14.824C57.5624 14.8632 57.5403 14.9165 57.5403 14.972V31.2434C57.5403 31.3581 57.6344 31.4522 57.7497 31.4522H60.6117C60.7276 31.4522 60.8217 31.3581 60.8217 31.2429V26.1062C61.9119 27.3294 63.2345 27.928 64.8463 27.928C67.8424 27.928 70.8739 25.6228 70.8739 21.2148C70.8739 16.8067 67.8407 14.5015 64.8445 14.5015ZM67.5437 21.2154C67.5437 23.4594 66.1618 25.0259 64.1824 25.0259C62.2242 25.0259 60.7482 23.3882 60.7482 21.2154C60.7482 19.0425 62.2242 17.4048 64.1824 17.4048C66.13 17.4048 67.5443 19.0072 67.5443 21.2154H67.5437ZM78.6444 14.5015C74.7868 14.5015 71.7654 17.4712 71.7654 21.2642C71.7654 25.0148 74.7656 27.9533 78.5962 27.9533C82.4674 27.9533 85.4982 24.993 85.4982 21.2154C85.4982 17.4506 82.4873 14.501 78.6438 14.501L78.6444 14.5015ZM78.6438 25.0489C76.5915 25.0489 75.0449 23.4006 75.0449 21.2148C75.0449 19.0201 76.5386 17.4277 78.5968 17.4277C80.6609 17.4277 82.2192 19.076 82.2192 21.263C82.2192 23.4564 80.715 25.0483 78.6438 25.0483V25.0489ZM93.7356 14.7626C93.8515 14.7626 93.945 14.8567 93.945 14.972V17.4318C93.9451 17.4593 93.9397 17.4865 93.9293 17.5119C93.9188 17.5373 93.9035 17.5604 93.8841 17.5798C93.8647 17.5993 93.8416 17.6147 93.8163 17.6252C93.7909 17.6357 93.7637 17.6412 93.7362 17.6412H90.5872V23.5576C90.5872 24.4926 90.9977 24.9089 91.9162 24.9089C92.5007 24.9121 93.0771 24.7728 93.5957 24.5032C93.6278 24.4873 93.6633 24.4798 93.6991 24.4815C93.7348 24.4832 93.7696 24.4939 93.8 24.5128C93.8304 24.5316 93.8555 24.5579 93.873 24.5891C93.8904 24.6204 93.8996 24.6556 93.8997 24.6913V27.033C93.8997 27.1077 93.8586 27.1782 93.7939 27.2153C92.9912 27.6698 92.1397 27.8815 91.1123 27.8815C88.5878 27.8815 87.3076 26.5778 87.3076 24.0051V17.6418H85.9316C85.9042 17.6417 85.877 17.6362 85.8517 17.6256C85.8264 17.6151 85.8035 17.5996 85.7841 17.5802C85.7648 17.5607 85.7495 17.5377 85.7391 17.5123C85.7287 17.487 85.7233 17.4598 85.7234 17.4324V14.972C85.7234 14.8567 85.8163 14.7626 85.9316 14.7626H87.3076V11.5424C87.3076 11.4272 87.4017 11.3331 87.5182 11.3331H90.3796C90.4955 11.3331 90.589 11.4272 90.589 11.5424V14.7626H93.738H93.7356ZM109.598 14.775C109.685 14.775 109.763 14.8279 109.794 14.9102L113.137 23.6334L116.189 14.9149C116.204 14.8738 116.23 14.8381 116.266 14.8128C116.301 14.7876 116.344 14.7739 116.387 14.7738H119.367C119.401 14.7738 119.435 14.7821 119.465 14.7981C119.495 14.8141 119.521 14.8372 119.54 14.8655C119.559 14.8937 119.571 14.9263 119.575 14.9602C119.579 14.9942 119.574 15.0285 119.561 15.0602L114.596 27.8915C113.567 30.5395 112.398 31.5239 110.285 31.5239C109.155 31.5239 108.241 31.2899 107.227 30.7418C107.181 30.7167 107.146 30.6746 107.129 30.6243C107.112 30.574 107.116 30.5193 107.138 30.4713L108.108 28.3426C108.12 28.3163 108.137 28.2928 108.158 28.2734C108.18 28.254 108.205 28.2391 108.232 28.2297C108.259 28.2209 108.288 28.2178 108.317 28.2205C108.346 28.2232 108.374 28.2317 108.399 28.2455C108.942 28.5425 109.473 28.6925 109.978 28.6925C110.601 28.6925 111.058 28.4878 111.523 27.4564L107.43 17.6418H104.757V27.4593C104.757 27.5752 104.663 27.6693 104.548 27.6693H101.686C101.658 27.6693 101.631 27.6638 101.605 27.6533C101.58 27.6427 101.557 27.6272 101.537 27.6077C101.518 27.5882 101.502 27.5651 101.492 27.5396C101.481 27.5141 101.476 27.4869 101.476 27.4593V17.6418H100.101C100.046 17.6413 99.9927 17.619 99.9534 17.5798C99.9141 17.5405 99.8919 17.4874 99.8914 17.4318V14.9602C99.8914 14.8444 99.9855 14.7503 100.101 14.7503H101.476V14.1446C101.476 11.3302 102.873 9.84121 105.517 9.84121C106.603 9.84121 107.328 10.0147 107.895 10.1823C107.985 10.2099 108.044 10.2917 108.044 10.3834V12.7944C108.045 12.8278 108.037 12.8607 108.022 12.8905C108.007 12.9203 107.985 12.9461 107.958 12.9657C107.931 12.9853 107.9 12.9981 107.867 13.0031C107.834 13.0081 107.801 13.0051 107.769 12.9944C107.232 12.8156 106.753 12.6968 106.157 12.6968C105.157 12.6968 104.71 13.2161 104.71 14.3798V14.775H109.598H109.598ZM98.3478 14.7626C98.463 14.7626 98.5571 14.8567 98.5571 14.972V27.4587C98.5571 27.574 98.463 27.6681 98.3472 27.6681H95.4851C95.4295 27.6681 95.3762 27.646 95.3369 27.6068C95.2975 27.5676 95.2753 27.5143 95.2752 27.4587V14.972C95.2752 14.8567 95.3693 14.7626 95.4845 14.7626H98.3466H98.3478ZM96.9311 9.07733C97.4754 9.07733 97.9975 9.29355 98.3823 9.67843C98.7672 10.0633 98.9834 10.5853 98.9834 11.1296C98.9834 11.6739 98.7672 12.196 98.3823 12.5808C97.9975 12.9657 97.4754 13.1819 96.9311 13.1819C96.3868 13.1819 95.8648 12.9657 95.4799 12.5808C95.0951 12.196 94.8788 11.6739 94.8788 11.1296C94.8788 10.5853 95.0951 10.0633 95.4799 9.67843C95.8648 9.29355 96.3868 9.07733 96.9311 9.07733ZM122.005 18.7767C121.74 18.7777 121.477 18.7263 121.233 18.6254C120.988 18.5246 120.765 18.3763 120.578 18.189C120.391 18.0018 120.243 17.7794 120.142 17.5346C120.041 17.2897 119.989 17.0274 119.991 16.7626C119.991 16.4968 120.043 16.2335 120.145 15.9879C120.246 15.7423 120.396 15.5191 120.584 15.3312C120.772 15.1432 120.995 14.9941 121.24 14.8924C121.486 14.7907 121.749 14.7384 122.015 14.7385C122.28 14.7374 122.542 14.7886 122.787 14.8893C123.032 14.9901 123.254 15.1383 123.442 15.3254C123.629 15.5126 123.777 15.7349 123.878 15.9797C123.979 16.2244 124.03 16.4867 124.029 16.7514C124.029 17.0174 123.977 17.2808 123.875 17.5265C123.774 17.7723 123.625 17.9956 123.436 18.1837C123.248 18.3718 123.025 18.521 122.78 18.6229C122.534 18.7247 122.271 18.7772 122.005 18.7773V18.7767ZM122.015 14.9391C120.984 14.9391 120.203 15.7594 120.203 16.7632C120.203 17.767 120.978 18.5762 122.005 18.5762C123.036 18.5762 123.818 17.7564 123.818 16.752C123.818 15.7482 123.041 14.9391 122.015 14.9391ZM122.462 16.959L123.031 17.7564H122.551L122.039 17.0249H121.598V17.7564H121.195V15.6424H122.139C122.629 15.6424 122.953 15.8941 122.953 16.3169C122.953 16.6638 122.753 16.8755 122.462 16.9578L122.462 16.959ZM122.12 16.0052H121.597V16.6732H122.12C122.383 16.6732 122.538 16.545 122.538 16.338C122.538 16.1205 122.383 16.0046 122.12 16.0046V16.0052ZM19.0957 0.563477C8.87178 0.563477 0.58374 8.96677 0.58374 19.1913C0.583152 28.7983 7.89972 36.5536 17.2651 37.7297H20.9263C30.2917 36.5536 37.6082 28.7983 37.6082 19.1907C37.6082 8.96677 29.3196 0.563477 19.0963 0.563477H19.0957ZM27.5854 27.2647C27.5066 27.3942 27.4029 27.5069 27.2805 27.5962C27.158 27.6856 27.0191 27.75 26.8717 27.7856C26.7243 27.8212 26.5714 27.8274 26.4216 27.8038C26.2718 27.7802 26.1281 27.7273 25.9989 27.6481C21.6514 24.9913 16.1801 24.3914 9.73622 25.8633C9.58856 25.8973 9.43565 25.9018 9.28625 25.8766C9.13685 25.8514 8.99389 25.797 8.86554 25.7165C8.73718 25.636 8.62597 25.5309 8.53824 25.4074C8.45051 25.2839 8.38801 25.1443 8.35429 24.9965C8.32036 24.8488 8.31591 24.6958 8.34118 24.5464C8.36646 24.3969 8.42097 24.2539 8.5016 24.1255C8.58222 23.9972 8.68738 23.886 8.81104 23.7983C8.9347 23.7106 9.07444 23.6482 9.22226 23.6146C16.2742 22.0033 22.3229 22.6973 27.2026 25.6787C27.4635 25.8386 27.6503 26.0954 27.7219 26.3929C27.7936 26.6904 27.7443 27.0041 27.5848 27.2653L27.5854 27.2647ZM29.8506 22.2239C29.6503 22.5499 29.3288 22.7831 28.9566 22.8722C28.5845 22.9613 28.1922 22.899 27.8659 22.699C22.891 19.6411 15.3051 18.7549 9.41867 20.542C9.05232 20.6526 8.65708 20.6135 8.31949 20.4333C7.98191 20.2531 7.72947 19.9465 7.61746 19.5806C7.38812 18.8161 7.8174 18.0122 8.5801 17.7811C15.3045 15.7406 23.6625 16.7285 29.3766 20.2392C29.7026 20.4396 29.9357 20.7612 30.0247 21.1333C30.1137 21.5055 30.0513 21.8977 29.8512 22.2239H29.8506ZM30.0458 16.9749C24.0783 13.4313 14.2354 13.1055 8.53894 14.8344C8.09944 14.9676 7.62503 14.9207 7.22008 14.7041C6.81512 14.4875 6.51279 14.1189 6.3796 13.6794C6.24641 13.2399 6.29327 12.7655 6.50986 12.3606C6.72645 11.9556 7.09504 11.6533 7.53454 11.5201C14.0737 9.53542 24.9445 9.91883 31.8141 13.9958C32.0097 14.1118 32.1806 14.2652 32.3169 14.4472C32.4532 14.6293 32.5523 14.8364 32.6086 15.0567C32.6648 15.2771 32.6771 15.5063 32.6447 15.7314C32.6123 15.9565 32.5359 16.1731 32.4198 16.3686C32.3039 16.5644 32.1505 16.7353 31.9684 16.8717C31.7863 17.0081 31.5792 17.1073 31.3587 17.1636C31.1383 17.2198 30.9089 17.2321 30.6837 17.1996C30.4586 17.1671 30.242 17.0906 30.0464 16.9743L30.0458 16.9749Z" fill="#6B7280"/>
</svg>
