<svg width="103" height="33" viewBox="0 0 103 33" fill="none" xmlns="http://www.w3.org/2000/svg">
<path fill-rule="evenodd" clip-rule="evenodd" d="M54.5885 8.57813C54.5885 8.98859 54.4668 9.38984 54.2387 9.73112C54.0107 10.0724 53.6866 10.3384 53.3074 10.4955C52.9281 10.6526 52.5109 10.6937 52.1083 10.6136C51.7057 10.5335 51.3359 10.3359 51.0457 10.0456C50.7554 9.75537 50.5578 9.38558 50.4777 8.98301C50.3976 8.58043 50.4387 8.16315 50.5958 7.78394C50.7529 7.40472 51.0189 7.0806 51.3602 6.85256C51.7015 6.62452 52.1027 6.5028 52.5132 6.5028C52.7859 6.50195 53.0562 6.55505 53.3084 6.65905C53.5605 6.76304 53.7897 6.91588 53.9825 7.10876C54.1754 7.30164 54.3283 7.53076 54.4323 7.78294C54.5362 8.03511 54.5893 8.30536 54.5885 8.57813ZM46.0268 12.749V13.2623C45.6352 12.8385 45.1562 12.5047 44.6231 12.284C44.0899 12.0632 43.5152 11.9607 42.9386 11.9835C42.1123 11.9746 41.2929 12.1333 40.5296 12.4499C39.7664 12.7665 39.0752 13.2345 38.4979 13.8256C37.9205 14.4167 37.469 15.1187 37.1705 15.8892C36.872 16.6597 36.7328 17.4827 36.7612 18.3085C36.7319 19.1343 36.8703 19.9575 37.168 20.7283C37.4657 21.4991 37.9165 22.2016 38.4933 22.7934C39.07 23.3851 39.7607 23.8538 40.5236 24.1712C41.2866 24.4886 42.1059 24.648 42.9322 24.64C43.5121 24.6666 44.0907 24.5628 44.6252 24.3361C45.1597 24.1094 45.6365 23.7656 46.0204 23.33V23.8736C46.0196 23.9323 46.0305 23.9905 46.0525 24.0448C46.0745 24.0991 46.1072 24.1485 46.1487 24.1899C46.1902 24.2314 46.2395 24.2641 46.2938 24.2861C46.3482 24.3082 46.4064 24.3191 46.465 24.3182H49.0537V12.2833H46.487C46.3701 12.2865 46.2589 12.3344 46.1762 12.4171C46.0935 12.4998 46.0457 12.611 46.0424 12.7279L46.0268 12.749ZM46.0268 20.4453C45.7304 20.8536 45.341 21.1854 44.8909 21.4132C44.4407 21.641 43.9427 21.7582 43.4382 21.7552C41.394 21.7552 39.8311 20.4765 39.8311 18.3085C39.8311 16.1406 41.394 14.8619 43.4382 14.8619C43.9415 14.8657 44.4371 14.9859 44.8862 15.2132C45.3353 15.4404 45.7257 15.7685 46.0268 16.1718V20.4526V20.4453ZM50.9768 12.3035H54.066V24.3118H50.9768V12.2833V12.3035ZM96.7799 11.9826C96.2033 11.9598 95.6286 12.0623 95.0955 12.2831C94.5623 12.5038 94.0834 12.8376 93.6917 13.2614V6.52205H90.6025V24.31H93.1903C93.3071 24.3067 93.4184 24.2589 93.501 24.1762C93.5837 24.0935 93.6316 23.9823 93.6348 23.8654V23.3218C94.0214 23.7524 94.4977 24.0928 95.0302 24.3192C95.5627 24.5455 96.1384 24.6522 96.7167 24.6317C97.5422 24.638 98.3605 24.4776 99.1226 24.1601C99.8846 23.8426 100.575 23.3746 101.152 22.784C101.728 22.1934 102.18 21.4924 102.479 20.7231C102.779 19.9537 102.92 19.1319 102.894 18.3067C102.921 17.4814 102.78 16.6592 102.481 15.8895C102.182 15.1198 101.73 14.4185 101.153 13.8278C100.576 13.237 99.8859 12.7689 99.1235 12.4517C98.3611 12.1345 97.5424 11.9746 96.7167 11.9817L96.7799 11.9826ZM96.2583 21.725C95.7531 21.7321 95.2537 21.6167 94.8028 21.3885C94.352 21.1604 93.9632 20.8264 93.6697 20.415V16.1333C93.9809 15.7408 94.3734 15.4205 94.8203 15.1944C95.2672 14.9682 95.7578 14.8417 96.2583 14.8234C98.3025 14.8234 99.8654 16.1021 99.8654 18.27C99.8654 20.438 98.3025 21.7167 96.2583 21.7167V21.725ZM89.0368 17.1911V24.3439H85.9477V17.5486C85.9477 15.5659 85.3298 14.7693 83.5827 14.7693C83.1119 14.7857 82.6496 14.8989 82.2246 15.1019C81.7996 15.3049 81.4209 15.5932 81.1123 15.949V24.3127H78.0231V12.2833H80.4504C80.5673 12.2865 80.6785 12.3344 80.7612 12.4171C80.8439 12.4998 80.8918 12.611 80.895 12.7279V13.2412C81.3213 12.8168 81.8301 12.4843 82.39 12.2644C82.9499 12.0444 83.5489 11.9417 84.1501 11.9625C85.3717 11.9173 86.5667 12.3265 87.5042 13.111C88.5913 14.0066 89.0048 15.1552 89.0048 17.1691L89.0368 17.1911ZM70.6118 11.9845C70.0352 11.9616 69.4605 12.0641 68.9274 12.2849C68.3942 12.5057 67.9153 12.8394 67.5236 13.2632V6.52388H64.4344V24.31H67.0231C67.14 24.3067 67.2512 24.2589 67.3339 24.1762C67.4166 24.0935 67.4644 23.9823 67.4677 23.8654V23.3218C67.8549 23.7532 68.3323 24.0942 68.866 24.3205C69.3997 24.5469 69.9766 24.6531 70.5559 24.6317C71.3814 24.638 72.1998 24.4776 72.9618 24.1601C73.7239 23.8426 74.414 23.3746 74.9908 22.784C75.5676 22.1934 76.0193 21.4924 76.3187 20.7231C76.6181 19.9537 76.7591 19.1319 76.7333 18.3067C76.7653 17.48 76.6285 16.6555 76.3313 15.8834C76.0341 15.1113 75.5827 14.4078 75.0046 13.816C74.4265 13.2241 73.734 12.7562 72.9691 12.4409C72.2042 12.1255 71.3831 11.9693 70.5559 11.9817L70.6118 11.9845ZM70.0967 21.725C69.5914 21.7321 69.092 21.6167 68.6412 21.3885C68.1903 21.1604 67.8015 20.8264 67.508 20.415V16.1333C67.8192 15.7408 68.2117 15.4205 68.6586 15.1944C69.1055 14.9682 69.5961 14.8417 70.0967 14.8234C72.1408 14.8234 73.7038 16.1021 73.7038 18.27C73.7038 20.438 72.1408 21.7167 70.0967 21.7167V21.725ZM61.7733 11.9808C62.248 11.9657 62.7223 12.0198 63.1813 12.1412V14.9829C63.1813 14.9829 60.6147 14.1368 59.0307 15.9399V24.3411H55.9415V12.2833H58.5302C58.6471 12.2865 58.7583 12.3344 58.841 12.4171C58.9236 12.4998 58.9715 12.611 58.9748 12.7279V13.2412C59.7072 12.4803 60.6997 12.0236 61.7541 11.9625L61.7733 11.9808ZM29.9283 23.2237L29.4462 22.0751L28.711 20.4435L28.6798 20.4123C26.4458 15.5439 24.0936 10.7305 21.6252 5.97663L21.5262 5.7933L20.7653 4.26247C20.4507 3.6357 20.0653 3.04703 19.6168 2.50797C19.1286 1.89287 18.5066 1.39733 17.7979 1.05912C17.0892 0.720908 16.3127 0.548962 15.5275 0.556383C14.7476 0.558961 13.9777 0.731637 13.2715 1.06237C12.5652 1.3931 11.9396 1.87392 11.4383 2.4713C11.0005 3.01827 10.6159 3.60577 10.2897 4.2258L9.42525 5.91796C6.95483 10.7121 4.56967 15.5613 2.36508 20.3536L2.33392 20.415C2.15058 20.9403 1.88933 21.4784 1.62992 22.0522C1.46919 22.4024 1.30847 22.7852 1.14775 23.2008C0.740226 24.3011 0.608663 25.4845 0.764583 26.6475C0.93647 27.8153 1.40963 28.9183 2.13744 29.8477C2.86526 30.7771 3.82263 31.5008 4.91525 31.9476C5.73452 32.292 6.61523 32.4664 7.50392 32.46C7.78078 32.4554 8.05715 32.4349 8.33167 32.3986C9.45855 32.2549 10.5448 31.8851 11.5253 31.3115C13.0146 30.4233 14.3514 29.3013 15.4844 27.9885C16.6245 29.2941 17.9601 30.415 19.4435 31.3115C20.4239 31.8853 21.5102 32.2551 22.6372 32.3986C22.9117 32.4349 23.1881 32.4554 23.4649 32.46C24.3539 32.4693 25.2352 32.2949 26.0536 31.9476C27.1462 31.5008 28.1036 30.7771 28.8314 29.8477C29.5592 28.9183 30.0324 27.8153 30.2043 26.6475C30.4395 25.5048 30.3386 24.3185 29.9137 23.232L29.9283 23.2237ZM15.5293 24.8856C13.806 22.7113 12.6877 20.6726 12.3045 18.9429C12.148 18.3064 12.1144 17.6459 12.2055 16.9968C12.2687 16.516 12.4443 16.0569 12.7179 15.6566C13.038 15.2126 13.4608 14.8526 13.9502 14.6074C14.4396 14.3622 14.9811 14.2391 15.5284 14.2486C16.077 14.2275 16.622 14.345 17.1132 14.5901C17.6044 14.8352 18.026 15.2001 18.3389 15.6511C18.6126 16.0514 18.7881 16.5105 18.8513 16.9913C18.9429 17.6404 18.9093 18.301 18.7523 18.9374C18.3692 20.6295 17.2518 22.6435 15.5275 24.8801L15.5293 24.8856ZM28.2728 26.3862C28.1527 27.2039 27.8211 27.976 27.3107 28.626C26.8004 29.2761 26.1291 29.7815 25.3633 30.0923C24.5996 30.4153 23.7656 30.5365 22.9415 30.4443C22.0841 30.3382 21.2577 30.0564 20.5142 29.6165C19.1436 28.789 17.9151 27.7463 16.8759 26.5283C18.9824 23.9396 20.2612 21.5783 20.7424 19.4681C20.9502 18.5779 21.0045 17.6587 20.9028 16.7502C20.7842 15.969 20.4885 15.2253 20.0384 14.5759C19.5323 13.8535 18.8563 13.2667 18.07 12.8671C17.2837 12.4675 16.4112 12.2673 15.5293 12.2842C14.652 12.273 13.7848 12.4732 13.0011 12.8677C12.2174 13.2623 11.5402 13.8397 11.0267 14.5511C10.5766 15.2005 10.2809 15.9443 10.1623 16.7255C10.0272 17.6328 10.0819 18.5582 10.3227 19.4434C10.8048 21.5499 12.1138 23.946 14.1892 26.5347C13.1573 27.76 11.9275 28.8038 10.5509 29.623C9.80735 30.0724 8.97864 30.3627 8.11717 30.4755C7.29401 30.5669 6.46098 30.4568 5.68983 30.1546C4.92406 29.8438 4.25276 29.3384 3.74243 28.6884C3.2321 28.0383 2.90045 27.2662 2.78033 26.4485C2.67936 25.6137 2.77898 24.7668 3.07092 23.9781C3.16992 23.6573 3.32392 23.3603 3.48342 22.9588C3.70617 22.4455 3.96558 21.9028 4.21858 21.3592L4.24975 21.2978C6.45525 16.5311 8.81475 11.6865 11.2806 6.95472L11.3723 6.72555L12.1386 5.25522C12.3872 4.74838 12.6963 4.27346 13.0589 3.8408C13.3738 3.47081 13.7653 3.17365 14.2063 2.96986C14.6473 2.76607 15.1274 2.66053 15.6132 2.66053C16.099 2.66053 16.5791 2.76607 17.0201 2.96986C17.4611 3.17365 17.8526 3.47081 18.1675 3.8408C18.512 4.27241 18.8043 4.74316 19.0383 5.2433L19.8047 6.71363L19.8963 6.89697C22.3237 11.66 24.696 16.5082 26.8951 21.2703V21.3015C27.1481 21.8148 27.3772 22.3886 27.6302 22.9011C27.7907 23.2842 27.9511 23.605 28.0427 23.9204C28.3079 24.7154 28.3842 25.5612 28.2655 26.3908L28.2728 26.3862Z" fill="#6B7280"/>
</svg>
